<?xml version="1.0" encoding="UTF-8"?>
<svg id="Layer_1" xmlns="http://www.w3.org/2000/svg" version="1.1" viewBox="0 0 989.2 1087.77">
  <!-- Generator: Adobe Illustrator 29.2.1, SVG Export Plug-In . SVG Version: 2.1.0 Build 116)  -->
  <defs>
    <style>
      .st0 {
        fill: #353535;
      }
    </style>
  </defs>
  <g>
    <path class="st0" d="M324,460.11l22.47-17.86-1.68-157.18,97.28,59.77s.28,13.65.45,21.06c7.41-5.51,33.32-27.68,39.84-31.91.04,9.84.09,21.13.15,33.91-48.72,40.96-98.59,80.87-147,122-8,6.79-98.87,81.4-116.02,95.71l-.04,187.74c-.7,4.41-28.8,35.66-33.92,42.08-1.72,2.15-4.36,4.87-5.02,7.48h202l-37.98-47.52c.13-14-.23-28.02-.06-42.02.77-61.76,2.78-125.2,1.09-187.01-.07-2.63-.12-7.12-.15-10.89h307.53c.85,12.57-.46,29.32-.43,41.44.02,8.32-.02,16.68,0,25,.02,8.32,0,16.68,0,25v112l-.21,36.29c-12.13,15.77-24.51,31.39-37.78,46.23-.52,2.45,2.52,1.43,3.99,1.49,33.26,1.22,66.89.73,100.53.19,32.16,0,64.32-.07,96.47-.19l2-.5c-9.16-10.48-18.37-21.09-26.97-32.03-3.36-4.27-10.42-11.94-12.02-16.48v-58c0-6.99,0-14.01,0-21,0-5.99,0-12.01,0-18-.02-13.68,0-27.32,0-41,0-5.65,0-11.35,0-17,0-10.37.02-20.8,0-31v-21.4c.01-12.2.04-24.41,0-36.6,0-1,0-2,0-3v-17.72c.01-8.43.03-16.86,0-25.28-.05-10.98.07-22.02,0-33l-.06-126.39,35.06-15.11c-23.94-17.39-48.68-33.67-73-50.5-1-.69-2.02-1.32-3-2h0c-3.65-2.52-7.82-4.81-11-7,0,0,0,0,0,0-3.7-2.54-7.26-5.43-11-8h0c-16.38-11.25-63-42.99-63-42.99,0,0,.32,68.73.05,97.71l-18.29-12.53v-126.01l-136.17-99.35-140.59,98.66v48.5c-3.65-1.96-12.09-6.22-15.69-8.28-39.26,27.53-78.17,55.6-117.31,83.28,0,0,0,0,0,0-8.38,5.93-16.71,12.06-25,18-2.54,1.82-15,10.98-15,10.98l31.29,17.45,1.72,224.14,29.7-22.87s-.79-139.04-.72-170.19l76.84-58.61c-.82,27.92.47,56.68.21,84.65M781.53,287.92s.02.05.03.08c-.2-.11-.39-.21-.59-.32.28.07.49.14.56.24ZM436.46,307.67c-1.97-1.74-4.58-3.15-7.86-4.22-26.56-17.67-84.49-49.1-84.49-49.1.14-1.55-.47-21.42-.47-21.42,58.91,35.02,93.26,52.85,93.26,52.85l.06-.05c-.66,3.26-.68,17.37-.5,21.94ZM652.57,326.15l-.04,81.96h-139.99c.33-101.12.65-202.26.98-303.43,31.58,21.75,65.15,43.04,96.58,64.93l-.78,130.36,43.25,26.19Z"/>
    <polygon class="st0" points="300.72 391.83 300.59 412.33 317.64 399.49 317.8 379.16 300.72 391.83"/>
    <polygon class="st0" points="279.97 406.5 279.84 427 296.88 414.16 297.05 393.82 279.97 406.5"/>
    <polygon class="st0" points="300.72 415.75 300.59 436.25 317.64 423.41 317.8 403.08 300.72 415.75"/>
    <polygon class="st0" points="279.97 430.42 279.84 450.92 296.88 438.08 297.05 417.75 279.97 430.42"/>
    <polygon class="st0" points="569.57 157.04 569.76 185.71 545.92 167.75 545.69 139.31 569.57 157.04"/>
    <polygon class="st0" points="598.59 177.55 598.77 206.22 574.93 188.26 574.7 159.83 598.59 177.55"/>
    <polygon class="st0" points="569.57 190.49 569.76 219.16 545.92 201.2 545.69 172.77 569.57 190.49"/>
    <polygon class="st0" points="598.59 211 598.77 239.67 574.93 221.71 574.7 193.28 598.59 211"/>
  </g>
  <g>
    <path class="st0" d="M189.92,863.47v48.65c0,5.79,1.44,12.67,9.22,12.67s9.15-5.79,9.15-12.59v-48.73h12.68v48.93c0,12.7-4.95,23.01-22.04,23.01s-21.71-9.7-21.71-23.02v-48.92h12.69Z"/>
    <path class="st0" d="M246.87,904.03v30.15h-12.59v-70.71h21.65c12.85,0,20.14,6.7,20.14,19.32,0,10.23-5.48,14.64-9.17,16.1,5.48,2.56,8.07,7.21,8.07,17.66v2.82c0,8.04.38,11.04.95,14.81h-12.25c-1.03-3.24-1.22-8.84-1.22-14.93v-2.58c0-9.45-2.17-12.65-10.16-12.65h-5.43ZM246.87,893.77h5.94c7.65,0,10.63-3.29,10.63-10.44,0-6.09-2.91-9.62-9.39-9.62h-7.18v20.05Z"/>
    <path class="st0" d="M287.81,863.47h21.56c12.27,0,19.01,6.8,19.01,17.93,0,8.92-4.26,13.26-8.17,14.72,5,2.05,10.22,6.63,10.22,17.26,0,13.44-8.75,20.8-21.33,20.8h-21.29v-70.71ZM306.32,891.68c7.87,0,9.92-3.03,9.92-9.13s-3.25-9.03-9.48-9.03h-6.54v18.16h6.11ZM300.21,924.3h7.56c6.31,0,9.96-3.23,9.96-11.18,0-7.29-3.03-11.57-11.35-11.57h-6.17v22.75Z"/>
    <path class="st0" d="M353.23,916.38l-3.51,17.8h-12.68l16.37-70.71h16.43l16.55,70.71h-13.28l-3.52-17.8h-16.36ZM367.33,905.39c-2.64-13.53-4.75-23.42-5.86-30.18h-.3c-.86,6.51-3.1,17.13-5.71,30.18h11.87Z"/>
    <path class="st0" d="M394.6,934.18v-70.71h14.38c14.62,39.08,17.43,46.53,18.28,50h.1c-.6-8.49-.63-18.9-.63-30.49v-19.5h11.31v70.71h-13.79c-15.1-41.66-17.78-49.17-18.7-52.42h-.1c.52,8.71.54,19.12.54,31.79v20.62h-11.39Z"/>
    <path class="st0" d="M474.13,863.47h12.68v27.95h17.04v-27.95h12.68v70.71h-12.68v-31.77h-17.04v31.77h-12.68v-70.71Z"/>
    <path class="st0" d="M574.59,898.28c0,25.86-7.03,37.11-23.33,37.11-15.23,0-22.65-11.09-22.65-37.26s8.64-35.79,23.22-35.79c15.41,0,22.75,11.39,22.75,35.94ZM541.59,898.02c0,16.78,2.54,26.76,9.96,26.76,7.81,0,10.04-9.24,10.04-26.73,0-16.43-2.37-24.99-10.06-24.99s-9.95,9.2-9.95,24.96Z"/>
    <path class="st0" d="M598.86,863.47v48.65c0,5.79,1.44,12.67,9.22,12.67s9.15-5.79,9.15-12.59v-48.73h12.68v48.93c0,12.7-4.95,23.01-22.04,23.01s-21.71-9.7-21.71-23.02v-48.92h12.69Z"/>
    <path class="st0" d="M652.48,914.37c.61,5.86,2.97,11.03,9.43,11.03s8.54-3.9,8.54-9.17c0-5.81-2.86-9.19-11.8-13.46-12.11-5.75-16.85-10.84-16.85-21.34,0-11.34,7.29-19.09,20.08-19.09,15.91,0,19.83,10.76,20.04,19.97h-12.41c-.41-4.04-1.45-9.99-7.85-9.99-5.01,0-7.25,3.25-7.25,8.05,0,5.09,2.26,7.47,10.55,11.32,12.69,5.87,18.38,11.56,18.38,23.39,0,11.1-6.88,20.28-21.82,20.28-16.26,0-21.21-10.41-21.66-21.01h12.6Z"/>
    <path class="st0" d="M707.01,863.47v70.71h-12.68v-70.71h12.68Z"/>
    <path class="st0" d="M721.71,934.18v-70.71h14.38c14.62,39.08,17.43,46.53,18.28,50h.1c-.6-8.49-.63-18.9-.63-30.49v-19.5h11.31v70.71h-13.79c-15.1-41.66-17.78-49.17-18.7-52.42h-.11c.52,8.71.54,19.12.54,31.79v20.62h-11.39Z"/>
    <path class="st0" d="M821.54,934.18h-9.65c-.3-2.16-.51-3.75-.6-6.02-3.16,5.6-8.07,7.24-14.04,7.24-14.77,0-20.11-13.15-20.11-36.13,0-25.81,8.71-36.92,23.9-36.92,19.16,0,20.22,16.42,20.43,20.61h-12.51c-.21-2.85-.82-9.9-8.3-9.9-8.16,0-10.43,10.87-10.43,26.18,0,16.49,1.94,25.53,10.01,25.53,6.71,0,8.74-5.14,8.74-15.56v-3.96h-9.52v-10.8h22.1v39.73Z"/>
  </g>
  <g>
    <path class="st0" d="M372.94,971.76h13.45c10.87,0,18.33,7.51,18.33,19.24s-7.27,19.97-18.44,19.97h-13.34v-39.21ZM376.95,1007.44h8.91c9.85,0,14.63-6.98,14.63-16.3,0-8.23-4.33-15.85-14.62-15.85h-8.92v32.15Z"/>
    <path class="st0" d="M442.46,992.12h-19.77v15.3h21.68l-.55,3.55h-25.09v-39.21h24.71v3.55h-20.75v13.27h19.77v3.55Z"/>
    <path class="st0" d="M467.15,975.31h-12.94v-3.55h29.97v3.55h-12.98v35.66h-4.05v-35.66Z"/>
    <path class="st0" d="M499.53,993.12v17.84h-4.02v-39.21h14.63c7.88,0,12.06,4.25,12.06,10.39,0,5.04-2.95,8.21-7.04,9.2,3.66.91,6.39,3.43,6.39,10.16v1.59c0,2.73-.18,6.3.51,7.87h-3.97c-.72-1.68-.61-4.79-.61-8.29v-.93c0-6.05-1.76-8.62-9.05-8.62h-8.9ZM499.53,989.61h9.04c6.49,0,9.43-2.43,9.43-7.25,0-4.52-2.95-7.1-8.7-7.1h-9.77v14.34Z"/>
    <path class="st0" d="M570.3,991.11c0,10.74-5.86,20.42-18.08,20.42-11.26,0-17.7-8.91-17.7-20.17s6.38-20.17,18.12-20.17c10.88,0,17.66,8.38,17.66,19.91ZM538.76,991.19c0,8.77,4.69,16.8,13.66,16.8,9.67,0,13.64-7.93,13.64-16.82s-4.5-16.44-13.58-16.44c-9.54,0-13.73,7.83-13.73,16.46Z"/>
    <path class="st0" d="M588.32,971.76v39.21h-4.01v-39.21h4.01Z"/>
    <path class="st0" d="M613.02,975.31h-12.94v-3.55h29.97v3.55h-12.98v35.66h-4.05v-35.66Z"/>
  </g>
</svg>